<svg xmlns="http://www.w3.org/2000/svg" width="114" height="32" viewBox="0 0 114 32">
  <g id="injevio-logo" transform="translate(-508.75 -272.75)">
    <rect id="Rectangle_1498" data-name="Rectangle 1498" width="114" height="32" transform="translate(508.75 272.75)" fill="none"/>
    <path id="Path_91" data-name="Path 91" d="M524.256,299.61v15.174H520.75V299.61Z" transform="translate(0 -18.29)" fill="#fff"/>
    <path id="Path_92" data-name="Path 92" d="M545.66,298.711h3.522v1.4a5.742,5.742,0,0,1,4.144-1.822,5.236,5.236,0,0,1,4.128,1.665q1.278,1.417,1.276,4.626v9.3h-3.522v-8.474a5.567,5.567,0,0,0-.622-3.1,2.515,2.515,0,0,0-2.211-.871,2.7,2.7,0,0,0-2.476,1.152,7.926,7.926,0,0,0-.718,3.972v7.322H545.66Z" transform="translate(-16.963 -17.392)" fill="#fff"/>
    <path id="Path_93" data-name="Path 93" d="M602.866,281.319V304.75H599.36V303l2.339-.01,0-.475-2.335.013v-1l1.289-.006,0-.472-1.286.006v-.976l1.283-.006,0-.472-1.279.006v-.9l2.316-.013,0-.472-2.313.013V297.3l1.267-.006,0-.472-1.267.006v-.976l1.26-.006v-.472l-1.26.006v-1.158l2.294-.013,0-.472-2.291.01v-.724l1.149-.006,0-.475-1.145.006v-.976l1.142-.006,0-.472-1.139.006v-9.779Zm-3.366-4.674a2.206,2.206,0,0,0,1.621.67,2.161,2.161,0,0,0,1.6-.67,2.206,2.206,0,0,0,.67-1.621,2.156,2.156,0,0,0-.67-1.6,2.276,2.276,0,0,0-3.226,0,2.171,2.171,0,0,0-.67,1.589A2.226,2.226,0,0,0,599.5,276.646Z" transform="translate(-53.169)" fill="#fff"/>
    <path id="Path_94" data-name="Path 94" d="M637.692,307.128H626.819a4.6,4.6,0,0,0,1.215,2.977,3.707,3.707,0,0,0,2.757,1.091,3.6,3.6,0,0,0,2.166-.622,8.848,8.848,0,0,0,1.917-2.307l2.961,1.653a11.8,11.8,0,0,1-1.449,2,7.776,7.776,0,0,1-1.637,1.372,6.653,6.653,0,0,1-1.885.788,9.2,9.2,0,0,1-2.195.249,7.14,7.14,0,0,1-5.453-2.182,8.179,8.179,0,0,1-2.058-5.826,8.4,8.4,0,0,1,1.994-5.826,7.6,7.6,0,0,1,10.624-.061,8.389,8.389,0,0,1,1.93,5.874Zm-3.6-2.865a3.357,3.357,0,0,0-3.535-2.8,3.611,3.611,0,0,0-1.2.195,3.431,3.431,0,0,0-1.021.562,3.6,3.6,0,0,0-.788.881,3.969,3.969,0,0,0-.5,1.168Z" transform="translate(-69.737 -17.398)" fill="#fff"/>
    <path id="Path_95" data-name="Path 95" d="M676.537,299.61l3.924,8.522,3.911-8.522h3.94l-7.883,16.217-7.82-16.217Z" transform="translate(-103.41 -18.29)" fill="#fff"/>
    <path id="Path_96" data-name="Path 96" d="M732.756,299.61v15.174H729.25V299.61Z" transform="translate(-141.979 -18.29)" fill="#fff"/>
    <path id="Path_97" data-name="Path 97" d="M751.91,306.18a7.546,7.546,0,0,1,2.351-5.593,8.3,8.3,0,0,1,11.5.016,8.127,8.127,0,0,1-.016,11.419,8.035,8.035,0,0,1-5.81,2.291,7.713,7.713,0,0,1-5.717-2.335A7.858,7.858,0,0,1,751.91,306.18Zm3.583.064a5.12,5.12,0,0,0,1.216,3.6,4.72,4.72,0,0,0,6.572.016,5.689,5.689,0,0,0,0-7.07,4.664,4.664,0,0,0-6.544,0A4.866,4.866,0,0,0,755.493,306.243Z" transform="translate(-157.41 -17.385)" fill="#fff"/>
  </g>
</svg>
