<svg xmlns="http://www.w3.org/2000/svg" width="24" height="24" viewBox="0 0 24 24">
  <g id="Group_5" data-name="Group 5" transform="translate(2318 4448)">
    <rect id="Rectangle_1498" data-name="Rectangle 1498" width="24" height="24" transform="translate(-2318 -4448)" fill="#0c1d4e"/>
    <path id="Path_93" data-name="Path 93" d="M601.195,277.771V291.5H599.14v-1.026l1.37-.006,0-.279-1.368.007v-.589l.755,0,0-.277-.753,0v-.572l.751,0,0-.277-.75,0v-.527l1.357-.007,0-.277-1.355.007v-.544l.742,0,0-.277-.742,0v-.572l.738,0v-.277l-.738,0v-.679l1.344-.008,0-.277-1.342.006v-.424l.673,0,0-.279-.671,0v-.572l.669,0,0-.277-.667,0v-5.73Zm-1.972-2.739a1.293,1.293,0,0,0,.95.393,1.266,1.266,0,0,0,.94-.393,1.293,1.293,0,0,0,.393-.95,1.263,1.263,0,0,0-.393-.94,1.334,1.334,0,0,0-1.89,0,1.272,1.272,0,0,0-.393.931A1.3,1.3,0,0,0,599.223,275.033Z" transform="translate(-2906.167 -4715.5)" fill="#fff"/>
  </g>
</svg>
